inDegrees=no
num_controls=7
num_derivatives=13
num_iterations=106
num_multipliers=7
num_parameters=0
num_slacks=7
num_states=26
objective=0.446691
objective_accelerations=0.055621
objective_balance=0.003294
objective_effort=0.021935
objective_height=0.360280
objective_ligament=0.005560
solver_duration=1416.372560
status=Solve_Succeeded
success=true
DataType=double
version=3
OpenSimVersion=4.5
endheader
time	/jointset/ground_pelvis/pelvis_tilt/value	/jointset/ground_pelvis/pelvis_tx/value	/jointset/ground_pelvis/pelvis_ty/value	/jointset/hip_l/hip_flexion_l/value	/jointset/hip_l/hip_adduction_l/value	/jointset/hip_l/hip_rotation_l/value	/jointset/back/lumbar_extension/value	/jointset/patellofemoral_l/patellar_flexion_l/value	/jointset/knee_l/knee_flexion_l/value	/jointset/knee_l/knee_adduction_l/value	/jointset/knee_l/knee_rotation_l/value	/jointset/ankle_l/ankle_angle_l/value	/jointset/subtalar_l/subtalar_angle_l/value	/jointset/ground_pelvis/pelvis_tilt/speed	/jointset/ground_pelvis/pelvis_tx/speed	/jointset/ground_pelvis/pelvis_ty/speed	/jointset/hip_l/hip_flexion_l/speed	/jointset/hip_l/hip_adduction_l/speed	/jointset/hip_l/hip_rotation_l/speed	/jointset/back/lumbar_extension/speed	/jointset/patellofemoral_l/patellar_flexion_l/speed	/jointset/knee_l/knee_flexion_l/speed	/jointset/knee_l/knee_adduction_l/speed	/jointset/knee_l/knee_rotation_l/speed	/jointset/ankle_l/ankle_angle_l/speed	/jointset/subtalar_l/subtalar_angle_l/speed	/forceset/tau_hip_flexion_l	/forceset/tau_hip_adduction_l	/forceset/tau_hip_rotation_l	/forceset/tau_knee_flexion_l	/forceset/tau_ankle_angle_l	/forceset/tau_subtalar_angle_l	/forceset/tau_lumbar_extension	lambda_cid13_p0	lambda_cid13_p1	lambda_cid13_p2	lambda_cid13_p3	lambda_cid13_p4	lambda_cid13_p5	lambda_cid14_p0	/jointset/ground_pelvis/pelvis_tilt/accel	/jointset/ground_pelvis/pelvis_tx/accel	/jointset/ground_pelvis/pelvis_ty/accel	/jointset/hip_l/hip_flexion_l/accel	/jointset/hip_l/hip_adduction_l/accel	/jointset/hip_l/hip_rotation_l/accel	/jointset/back/lumbar_extension/accel	/jointset/patellofemoral_l/patellar_flexion_l/accel	/jointset/knee_l/knee_flexion_l/accel	/jointset/knee_l/knee_adduction_l/accel	/jointset/knee_l/knee_rotation_l/accel	/jointset/ankle_l/ankle_angle_l/accel	/jointset/subtalar_l/subtalar_angle_l/accel	gamma_cid13_p0	gamma_cid13_p1	gamma_cid13_p2	gamma_cid13_p3	gamma_cid13_p4	gamma_cid13_p5	gamma_cid14_p0
1.5	-0.3495621517608097	-0.01411653993564072	0.7680930057474517	1.063996243572737	-0.4352548597407171	-0.2169675574968555	-0.222899487054223	0.7922114403939047	0.7922114403939914	-0.1343807976847011	-0.145396631429612	0.1380031334554919	-0.01403417482632814	0.6313726966287155	0.2565189983245325	0.507834806809321	-2.349316616405624	0.2140641479773628	-0.708375419179442	0.3195374187498742	-1.984569253846743	-1.984569253846612	-0.1204140838801216	0.1344175371630973	-0.4275413420235796	0.02534243402451174	-0.166059055522417	0.03353671125532244	-0.008056374734043406	-0.2038043657084144	0.0358953940385621	0.03896266232785935	0.1624782275764678	-20.70207285430907	-16.30981339681412	5.706011809249607	-6.373690273550084	-520.8717251935134	-59.47901524126626	-25.54294708168284	0.6088531272069946	0.6455971714994645	-0.5030449084147939	-1.203106697757188	0.6889309715761363	-0.1665347601118968	1.401743567558185	-1.272780699555182	-1.272780699555196	0.1164581552157953	0.2157258209456904	-0.4809390262138888	0.502034154276067	4.790022750327667e-07	6.108511197424895e-07	-2.620246478294514e-06	-5.874935738958226e-08	6.724341361789939e-07	1.31495007947779e-07	4.384946464396603e-07
1.51	-0.3432181006797917	-0.0115193551534046	0.7731452037823071	1.040444644596689	-0.4330811968551531	-0.2240581633520448	-0.2196351606713174	0.7723043171928388	0.7723043171929865	-0.1355821796967656	-0.1440427183171396	0.1337038439187813	-0.01375737360398625	0.6373438720527528	0.2628811983398399	0.5024987377528276	-2.360673762541508	0.2206479099542629	-0.7096274182613997	0.3332976289752865	-1.996586953862603	-1.996586953862407	-0.1198699630758636	0.1363701344511435	-0.4322509983714037	0.03002081902145812	-0.1605386849627839	0.03283914279711698	-0.007709556109990205	-0.2007134127998591	0.03577807456649636	0.03821347684179335	0.1579559139086895	-20.54811242840483	-16.01686917611051	5.66555556494697	-6.140814614317585	-517.1986220600953	-59.56995939908173	-26.43847547664899	0.5772259967381691	0.6260414736775308	-0.5646861769125359	-1.052574311161331	0.6400962407992294	-0.08643692147133937	1.358625421623249	-1.126075604558516	-1.126075604548865	0.0223657805913116	0.1854325781813293	-0.4561118765073462	0.4512064172871779	4.239440282368836e-07	9.494463932141145e-07	-1.987517110857342e-06	5.930605333779156e-08	5.952202677783484e-07	2.177269084256794e-07	3.993189982157888e-07
1.52	-0.3368171425951864	-0.008859646359589187	0.7781408814720685	1.016789363011348	-0.4308422968638097	-0.2311576700858997	-0.2162341390518405	0.7522850548012224	0.7522850548014343	-0.136778325153276	-0.1426691980526961	0.1293594312311045	-0.01343369538269823	0.642754097346232	0.2690238006403899	0.4965307377905005	-2.370053138263689	0.2271115691332534	-0.7101555949127017	0.3468764660643194	-2.006997091956747	-2.006997091956487	-0.1193667727691844	0.13833896755708	-0.4365659722168543	0.03471783381373542	-0.1550183144031753	0.03214157433891277	-0.00736273748594596	-0.197622459891303	0.03566075509443353	0.03746429135572952	0.1534336002408855	-20.39728868412007	-15.72709782201905	5.629857896751724	-5.941887376640479	-513.5902337842111	-59.71144283752841	-27.33405121908238	0.4966631010953989	0.601677628548001	-0.6294310895815114	-0.8075526150168834	0.6649104119941954	-0.02177027398077229	1.3654689402823	-0.9512683152119218	-0.9512683152119127	0.1082720557000149	0.218972984523764	-0.4020025257391421	0.5057601133422638	4.030906403774841e-07	1.236223446982135e-06	-1.614266954953878e-06	1.395138996242498e-07	5.800615288228749e-07	2.989805370335558e-07	3.853878696861076e-07
1.53	-0.3303647716147081	-0.006139717814725495	0.7830737288949163	0.9930501919982108	-0.4285396460321366	-0.2382597658838507	-0.2126991593158635	0.7321701012053943	0.7321701012054534	-0.1379694613302065	-0.1412768594860263	0.1249738762671441	-0.01306324735465918	0.64761602536614	0.2749122135967998	0.489928986728647	-2.377402161268364	0.2333806205714072	-0.7101616976007825	0.3600205738518047	-2.01566590737281	-2.015665907372562	-0.1188592862339357	0.1400979577897783	-0.440464011099202	0.03936380441290854	-0.1487085463699382	0.03045116770633464	-0.007073527792468538	-0.1953602858361575	0.03643398795894685	0.03675801212478241	0.1482108896044886	-19.94907636392723	-15.51026341837467	5.608336970523306	-5.849845520236417	-509.7018002478601	-60.07152601974148	-28.23000397629348	0.4653556387797071	0.5750091029298431	-0.6918795182722215	-0.6417233087348202	0.6021929882285358	0.0256221590014237	1.274045606077601	-0.7756112154669603	-0.7756112154688182	0.02236756220699154	0.1494187861195824	-0.3714991481203925	0.442736591707778	4.185799151380978e-07	1.467943642315075e-06	-1.516713461304975e-06	1.795087086922356e-07	6.308363649028961e-07	3.749447517795318e-07	3.982790433315032e-07
1.54	-0.3238669017567632	-0.003362387945549241	0.7879372923263888	0.9692489015219148	-0.4261754465903824	-0.245358792223638	-0.2090357057203935	0.7119782748432716	0.7119782748431818	-0.1391554465198238	-0.1398679196683386	0.1205517819986325	-0.0126465954089278	0.6518538728396969	0.2805040655029023	0.4826739395153957	-2.38247703089472	0.2394212911496657	-0.7095417032799376	0.372571237963129	-2.02237164521541	-2.022371645215175	-0.1183365753078996	0.1416592177615465	-0.4438738331270616	0.04395861735219975	-0.1423987783367374	0.02876076107374951	-0.006784318098959336	-0.1930981117810175	0.03720722082346069	0.0360517328938284	0.1429881789680592	-19.50090733975422	-15.29604578050782	5.590231812409534	-5.797372315049482	-505.8327561872388	-60.47592985027283	-29.12726905675148	0.3718469918251493	0.5423654184865316	-0.7600903198610754	-0.3527219393529782	0.6192342400151378	0.1034491278043633	1.246780205050077	-0.558652800519259	-0.5586528005192773	0.1113169338574934	0.1794269323377641	-0.3043591548414651	0.4955285813658957	4.038507416730583e-07	1.567236024126163e-06	-1.387702414887395e-06	2.113437188047786e-07	6.148770264622921e-07	4.155938871831713e-07	3.907420388039559e-07
1.55	-0.317329928499449	-0.0005306217353474936	0.7927252254203419	0.9454080949314857	-0.4237516854483659	-0.2524486984670454	-0.2052487904282513	0.6917288579664668	0.6917288579664007	-0.1403355212475339	-0.1384439946705364	0.1160980870072105	-0.0121838429333322	0.6554445135441519	0.2858007633248002	0.4748276809804733	-2.385367149669013	0.2453022998296607	-0.7083416996235549	0.3847770120359702	-2.027248292486081	-2.027248292486042	-0.1176778274085358	0.1431231156978676	-0.4467960630560892	0.04858925766918176	-0.1372263620835689	0.02821430858976201	-0.006431605266812928	-0.1899188746293927	0.03671957528353118	0.0349334355089609	0.138712983822067	-19.51747690394318	-14.81228051944359	5.518602977015489	-5.372747110853915	-502.819640120467	-60.33525641887788	-30.0263710907026	0.3382360039529847	0.516109230265493	-0.8095492753724292	-0.209577384684073	0.5681948384093485	0.143264368393324	1.20225474398122	-0.4127235224756725	-0.4127235225050506	0.04342932469764992	0.1292136094354684	-0.2757421721218951	0.4463338983804403	3.543046604697678e-07	1.513948533835993e-06	-1.222446796801559e-06	2.337772214251816e-07	5.22028313030537e-07	4.155539094315125e-07	3.596682202945409e-07
